# xmcd
#
# Track frame offsets: 
#        150
#        15477
#        33620
#        45252
#        59557
#        77140
#        94825
#        115017
#        130057
#        151632
#        164872
#        180287
#        197942
#        213785
#
# Disc length: 2992 seconds
#
# Revision: 10
# Processed by: cddbd v1.5.1PL2 Copyright (c) Steve Scherf et al.
# Submitted via: ExactAudioCopy v0.90b4
#
DISCID=af0bae0e
DTITLE=Dwight Yoakam - Last Chance For A Thousand Years
DYEAR=1999
DGENRE=country
TTITLE0=Turn It On, Turn It Up, Turn Me Loose
TTITLE1=You're The One
TTITLE2=It Only Hurts When I Cry
TTITLE3=The Heart That You Own
TTITLE4=Suspicious Minds
TTITLE5=Thinking About Leaving
TTITLE6=A Thousands Miles From Nowhere
TTITLE7=Ain't That Lonely Yet
TTITLE8=Fast As You
TTITLE9=Pocket Of A Clown
TTITLE10=Sorry You Asked?
TTITLE11=Nothing
TTITLE12=I'll Go  Back To Her
TTITLE13=Crazy Little Thing Called Love
EXTD=Dwight Yoakams greatest hits from the 90's
EXTT0=
EXTT1=
EXTT2=
EXTT3=
EXTT4=
EXTT5=
EXTT6=
EXTT7=
EXTT8=
EXTT9=
EXTT10=
EXTT11=
EXTT12=
EXTT13=
PLAYORDER=
